<?xml version="1.0" encoding="UTF-8"?>
<svg xmlns="http://www.w3.org/2000/svg" xmlns:xlink="http://www.w3.org/1999/xlink" fill-opacity="1" color-rendering="auto" color-interpolation="auto" stroke="black" text-rendering="auto" stroke-linecap="square" width="705" stroke-miterlimit="10" stroke-opacity="1" shape-rendering="auto" fill="black" stroke-dasharray="none" font-weight="normal" stroke-width="1" height="646" font-family="'Dialog'" font-style="normal" stroke-linejoin="miter" font-size="12" stroke-dashoffset="0" image-rendering="auto">
  <!--Generated by ySVG-->
  <defs id="genericDefs"/>
  <g>
    <defs id="defs1">
      <clipPath clipPathUnits="userSpaceOnUse" id="clipPath1">
        <path d="M0 0 L705 0 L705 646 L0 646 L0 0 Z"/>
      </clipPath>
      <clipPath clipPathUnits="userSpaceOnUse" id="clipPath2">
        <path d="M-147 -93 L355.8854 -93 L355.8854 367.8 L-147 367.8 L-147 -93 Z"/>
      </clipPath>
    </defs>
    <g fill="white" transform="scale(1.4019,1.4019) translate(147,93)" stroke="white">
      <rect x="-147" width="503" height="461" y="-93" clip-path="url(#clipPath2)" stroke="none"/>
    </g>
    <g stroke-linecap="butt" transform="matrix(1.4019,0,0,1.4019,206.0807,130.3776)" stroke-miterlimit="1.45">
      <rect x="4.7" y="-84.5875" clip-path="url(#clipPath2)" fill="none" width="80" rx="20" ry="20" height="40"/>
      <text x="28.1063" xml:space="preserve" y="-67.4156" font-family="sans-serif" clip-path="url(#clipPath2)" stroke="none">inicio</text>
      <text x="29.6297" xml:space="preserve" y="-53.4469" font-family="sans-serif" clip-path="url(#clipPath2)" stroke="none">t = 0</text>
    </g>
    <g stroke-linecap="butt" transform="matrix(1.4019,0,0,1.4019,206.0807,130.3776)" stroke-miterlimit="1.45">
      <rect x="-140.9" y="123.9375" clip-path="url(#clipPath2)" fill="none" width="80" rx="20" ry="20" height="40"/>
      <text x="-108.9039" xml:space="preserve" y="148.0938" font-family="sans-serif" clip-path="url(#clipPath2)" stroke="none">fin</text>
    </g>
    <g stroke-linecap="butt" transform="matrix(1.4019,0,0,1.4019,206.0807,130.3776)" stroke-miterlimit="1.45">
      <path fill="none" d="M-6.9 -19.4375 L96.3 -19.4375 L96.3 20.5625 L-6.9 20.5625 Z" clip-path="url(#clipPath2)"/>
      <text x="1.66" xml:space="preserve" y="4.7188" font-family="sans-serif" clip-path="url(#clipPath2)" stroke="none">inicializar P(t)</text>
    </g>
    <g stroke-linecap="butt" transform="matrix(1.4019,0,0,1.4019,206.0807,130.3776)" stroke-miterlimit="1.45">
      <path fill="none" d="M-6.9 43.05 L96.3 43.05 L96.3 83.05 L-6.9 83.05 Z" clip-path="url(#clipPath2)"/>
      <text x="-0.9709" xml:space="preserve" y="67.2063" font-family="sans-serif" clip-path="url(#clipPath2)" stroke="none">evaluación P(t)</text>
    </g>
    <g stroke-linecap="butt" transform="matrix(1.4019,0,0,1.4019,206.0807,130.3776)" stroke-miterlimit="1.45">
      <path fill="none" d="M175.4 43.05 L340.2 43.05 L340.2 83.05 L175.4 83.05 Z" clip-path="url(#clipPath2)"/>
      <text x="179.7531" xml:space="preserve" y="67.2063" font-family="sans-serif" clip-path="url(#clipPath2)" stroke="none">P(t) = recombinación P(t)</text>
    </g>
    <g stroke-linecap="butt" transform="matrix(1.4019,0,0,1.4019,206.0807,130.3776)" stroke-miterlimit="1.45">
      <path fill="none" d="M175.4 113.05 L340.2 113.05 L340.2 153.05 L175.4 153.05 Z" clip-path="url(#clipPath2)"/>
      <text x="196.4934" xml:space="preserve" y="137.2063" font-family="sans-serif" clip-path="url(#clipPath2)" stroke="none">P(t) = mutación P(t)</text>
    </g>
    <g stroke-linecap="butt" transform="matrix(1.4019,0,0,1.4019,206.0807,130.3776)" stroke-miterlimit="1.45">
      <path fill="none" d="M175.4 178.05 L340.2 178.05 L340.2 218.05 L175.4 218.05 Z" clip-path="url(#clipPath2)"/>
      <text x="212.1291" xml:space="preserve" y="202.2063" font-family="sans-serif" clip-path="url(#clipPath2)" stroke="none">evaluación P(t)</text>
    </g>
    <g stroke-linecap="butt" transform="matrix(1.4019,0,0,1.4019,206.0807,130.3776)" stroke-miterlimit="1.45">
      <path fill="none" d="M175.4 243.05 L340.2 243.05 L340.2 283.05 L175.4 283.05 Z" clip-path="url(#clipPath2)"/>
      <text x="187.7307" xml:space="preserve" y="267.2062" font-family="sans-serif" clip-path="url(#clipPath2)" stroke="none">P(t+1) = selección P(t)</text>
    </g>
    <g stroke-linecap="butt" transform="matrix(1.4019,0,0,1.4019,206.0807,130.3776)" stroke-miterlimit="1.45">
      <path fill="none" d="M45.1 105.5375 L109.9 143.9375 L45.1 182.3375 L-19.7 143.9375 Z" clip-path="url(#clipPath2)"/>
      <text x="14.3383" xml:space="preserve" y="134.0576" font-family="sans-serif" clip-path="url(#clipPath2)" stroke="none">se cumple</text>
      <text x="-10.0279" xml:space="preserve" y="148.0264" font-family="sans-serif" clip-path="url(#clipPath2)" stroke="none">cond. terminación</text>
    </g>
    <g stroke-linecap="butt" transform="matrix(1.4019,0,0,1.4019,206.0807,130.3776)" stroke-miterlimit="1.45">
      <path fill="none" d="M175.4 308.05 L340.2 308.05 L340.2 348.05 L175.4 348.05 Z" clip-path="url(#clipPath2)"/>
      <text x="231.4768" xml:space="preserve" y="332.2062" font-family="sans-serif" clip-path="url(#clipPath2)" stroke="none">t = t + 1</text>
    </g>
    <g stroke-linecap="butt" transform="matrix(1.4019,0,0,1.4019,206.0807,130.3776)" stroke-miterlimit="1.45">
      <path fill="none" d="M44.7 -44.5781 L44.7 -27.4069" clip-path="url(#clipPath2)"/>
    </g>
    <g stroke-linecap="butt" transform="matrix(1.4019,0,0,1.4019,206.0807,130.3776)" stroke-miterlimit="1.45">
      <path d="M44.7 -19.4069 L49.7 -31.4069 L44.7 -28.4069 L39.7 -31.4069 Z" clip-path="url(#clipPath2)" stroke="none"/>
      <path fill="none" d="M44.7 20.5475 L44.7 35.0855" clip-path="url(#clipPath2)"/>
      <path d="M44.7 43.0855 L49.7 31.0855 L44.7 34.0855 L39.7 31.0855 Z" clip-path="url(#clipPath2)" stroke="none"/>
      <path fill="none" d="M257.8 83.0451 L257.8 105.0773" clip-path="url(#clipPath2)"/>
      <path d="M257.8 113.0773 L262.8 101.0773 L257.8 104.0773 L252.8 101.0773 Z" clip-path="url(#clipPath2)" stroke="none"/>
      <path fill="none" d="M257.8 153.0769 L257.8 170.0668" clip-path="url(#clipPath2)"/>
      <path d="M257.8 178.0668 L262.8 166.0668 L257.8 169.0668 L252.8 166.0668 Z" clip-path="url(#clipPath2)" stroke="none"/>
      <path fill="none" d="M257.8 218.0769 L257.8 235.0668" clip-path="url(#clipPath2)"/>
      <path d="M257.8 243.0668 L262.8 231.0668 L257.8 234.0668 L252.8 231.0668 Z" clip-path="url(#clipPath2)" stroke="none"/>
      <path fill="none" d="M44.799 83.0744 L44.871 97.6307" clip-path="url(#clipPath2)"/>
      <path d="M44.9106 105.6306 L49.8512 93.606 L44.8661 96.6307 L39.8513 93.6555 Z" clip-path="url(#clipPath2)" stroke="none"/>
      <path fill="none" d="M-19.6661 143.9375 L-52.878 143.9375" clip-path="url(#clipPath2)"/>
      <path d="M-60.878 143.9375 L-48.878 148.9375 L-51.878 143.9375 L-48.878 138.9375 Z" clip-path="url(#clipPath2)" stroke="none"/>
      <text x="-46.3293" xml:space="preserve" y="118.0938" font-family="sans-serif" clip-path="url(#clipPath2)" stroke="none">Sí</text>
      <path fill="none" d="M109.9278 143.9375 L144.85 143.9375 L144.85 63.05 L167.3763 63.05" clip-path="url(#clipPath2)"/>
      <path d="M175.3763 63.05 L163.3763 58.05 L166.3763 63.05 L163.3763 68.05 Z" clip-path="url(#clipPath2)" stroke="none"/>
      <text x="116.9" xml:space="preserve" y="122.9087" font-family="sans-serif" clip-path="url(#clipPath2)" stroke="none">No</text>
      <path fill="none" d="M257.8 283.0768 L257.8 300.0668" clip-path="url(#clipPath2)"/>
      <path d="M257.8 308.0668 L262.8 296.0668 L257.8 299.0668 L252.8 296.0668 Z" clip-path="url(#clipPath2)" stroke="none"/>
      <path fill="none" d="M175.4151 328.05 L45.1 328.05 L45.1 190.3692" clip-path="url(#clipPath2)"/>
      <path d="M45.1 182.3692 L40.1 194.3692 L45.1 191.3692 L50.1 194.3692 Z" clip-path="url(#clipPath2)" stroke="none"/>
    </g>
  </g>
</svg>
