<?xml version="1.0" encoding="UTF-8" standalone="no"?>
<!-- Created with Inkscape (http://www.inkscape.org/) -->

<svg
   xmlns:ns0="http://www.iki.fi/pav/software/textext/"
   xmlns:dc="http://purl.org/dc/elements/1.1/"
   xmlns:cc="http://creativecommons.org/ns#"
   xmlns:rdf="http://www.w3.org/1999/02/22-rdf-syntax-ns#"
   xmlns:svg="http://www.w3.org/2000/svg"
   xmlns="http://www.w3.org/2000/svg"
   xmlns:xlink="http://www.w3.org/1999/xlink"
   xmlns:sodipodi="http://sodipodi.sourceforge.net/DTD/sodipodi-0.dtd"
   xmlns:inkscape="http://www.inkscape.org/namespaces/inkscape"
   width="210mm"
   height="297mm"
   viewBox="0 0 744.09448819 1052.3622047"
   id="svg2"
   version="1.1"
   inkscape:version="0.91 r13725"
   sodipodi:docname="qbit-vs-bit.svg">
  <sodipodi:namedview
     id="base"
     pagecolor="#ffffff"
     bordercolor="#666666"
     borderopacity="1.0"
     inkscape:pageopacity="0.0"
     inkscape:pageshadow="2"
     inkscape:zoom="1.4322256"
     inkscape:cx="272.30728"
     inkscape:cy="214.48612"
     inkscape:document-units="px"
     inkscape:current-layer="g4188"
     showgrid="false"
     inkscape:snap-bbox="true"
     inkscape:snap-object-midpoints="true"
     showguides="false"
     inkscape:window-width="1364"
     inkscape:window-height="747"
     inkscape:window-x="0"
     inkscape:window-y="19"
     inkscape:window-maximized="1"
     inkscape:bbox-nodes="false"
     inkscape:snap-nodes="true"
     inkscape:object-nodes="true"
     inkscape:snap-intersection-paths="true">
    <inkscape:grid
       id="grid3336"
       type="xygrid" />
  </sodipodi:namedview>
  <defs
     id="defs4">
    <marker
       inkscape:isstock="true"
       style="overflow:visible;"
       id="Arrow1Send"
       refX="0.0"
       refY="0.0"
       orient="auto"
       inkscape:stockid="Arrow1Send">
      <path
         transform="scale(0.2) rotate(180) translate(6,0)"
         style="fill-rule:evenodd;stroke:#ff0000;stroke-width:1pt;stroke-opacity:1;fill:#ff0000;fill-opacity:1"
         d="M 0.0,0.0 L 5.0,-5.0 L -12.5,0.0 L 5.0,5.0 L 0.0,0.0 z "
         id="path4823" />
    </marker>
    <marker
       inkscape:isstock="true"
       style="overflow:visible;"
       id="Arrow1Mend"
       refX="0.0"
       refY="0.0"
       orient="auto"
       inkscape:stockid="Arrow1Mend">
      <path
         transform="scale(0.4) rotate(180) translate(10,0)"
         style="fill-rule:evenodd;stroke:#ff0000;stroke-width:1pt;stroke-opacity:1;fill:#ff0000;fill-opacity:1"
         d="M 0.0,0.0 L 5.0,-5.0 L -12.5,0.0 L 5.0,5.0 L 0.0,0.0 z "
         id="path4817" />
    </marker>
    <marker
       inkscape:isstock="true"
       style="overflow:visible"
       id="Arrow1Mstart"
       refX="0.0"
       refY="0.0"
       orient="auto"
       inkscape:stockid="Arrow1Mstart">
      <path
         transform="scale(0.4) translate(10,0)"
         style="fill-rule:evenodd;stroke:#ff0000;stroke-width:1pt;stroke-opacity:1;fill:#ff0000;fill-opacity:1"
         d="M 0.0,0.0 L 5.0,-5.0 L -12.5,0.0 L 5.0,5.0 L 0.0,0.0 z "
         id="path4814" />
    </marker>
  </defs>
  <metadata
     id="metadata7">
    <rdf:RDF>
      <cc:Work
         rdf:about="">
        <dc:format>image/svg+xml</dc:format>
        <dc:type
           rdf:resource="http://purl.org/dc/dcmitype/StillImage" />
        <dc:title></dc:title>
      </cc:Work>
    </rdf:RDF>
  </metadata>
  <g
     id="layer1"
     inkscape:groupmode="layer"
     inkscape:label="Capa 1">
    <path
       inkscape:connector-curvature="0"
       id="path3338"
       d="m 20,1042.3622 0,-170"
       style="fill:none;fill-rule:evenodd;stroke:#000000;stroke-width:1px;stroke-linecap:butt;stroke-linejoin:miter;stroke-opacity:1" />
    <circle
       r="5"
       cy="812.36218"
       cx="120"
       id="path3340"
       style="stroke-width:15;stroke-linecap:butt;stroke-linejoin:miter;stroke-miterlimit:4;stroke-dasharray:none"
       inkscape:export-xdpi="90"
       inkscape:export-ydpi="90" />
    <circle
       style="stroke-width:15;stroke-linecap:butt;stroke-linejoin:miter;stroke-miterlimit:4;stroke-dasharray:none"
       id="circle3342"
       cx="240"
       cy="812.36218"
       r="5"
       inkscape:export-xdpi="90"
       inkscape:export-ydpi="90" />
    <text
       sodipodi:linespacing="125%"
       id="text3344"
       y="833.07642"
       x="115.71429"
       style="font-style:normal;font-weight:normal;font-size:40px;line-height:125%;font-family:Sans;letter-spacing:0px;word-spacing:0px;fill:#000000;fill-opacity:1;stroke:none;stroke-width:1px;stroke-linecap:butt;stroke-linejoin:miter;stroke-opacity:1"
       xml:space="preserve"
       inkscape:export-xdpi="90"
       inkscape:export-ydpi="90"><tspan
         style="font-size:15px"
         y="833.07642"
         x="115.71429"
         id="tspan3346"
         sodipodi:role="line">0</tspan></text>
    <text
       sodipodi:linespacing="125%"
       id="text3348"
       y="833.07642"
       x="235.71429"
       style="font-style:normal;font-weight:normal;font-size:40px;line-height:125%;font-family:Sans;letter-spacing:0px;word-spacing:0px;fill:#000000;fill-opacity:1;stroke:none;stroke-width:1px;stroke-linecap:butt;stroke-linejoin:miter;stroke-opacity:1"
       xml:space="preserve"
       inkscape:export-xdpi="90"
       inkscape:export-ydpi="90"><tspan
         style="font-size:15px"
         y="833.07642"
         x="235.71429"
         id="tspan3350"
         sodipodi:role="line">1</tspan></text>
    <circle
       style="stroke-width:15;stroke-linecap:butt;stroke-linejoin:miter;stroke-miterlimit:4;stroke-dasharray:none"
       id="circle3352"
       cx="310"
       cy="812.36218"
       r="5"
       inkscape:export-xdpi="90"
       inkscape:export-ydpi="90" />
    <circle
       r="5"
       cy="812.36218"
       cx="430"
       id="circle3354"
       style="stroke-width:15;stroke-linecap:butt;stroke-linejoin:miter;stroke-miterlimit:4;stroke-dasharray:none"
       inkscape:export-xdpi="90"
       inkscape:export-ydpi="90" />
    <text
       xml:space="preserve"
       style="font-style:normal;font-weight:normal;font-size:40px;line-height:125%;font-family:Sans;letter-spacing:0px;word-spacing:0px;fill:#000000;fill-opacity:1;stroke:none;stroke-width:1px;stroke-linecap:butt;stroke-linejoin:miter;stroke-opacity:1"
       x="305.71429"
       y="833.07642"
       id="text3356"
       sodipodi:linespacing="125%"
       inkscape:export-xdpi="90"
       inkscape:export-ydpi="90"><tspan
         sodipodi:role="line"
         id="tspan3358"
         x="305.71429"
         y="833.07642"
         style="font-size:15px">0</tspan></text>
    <text
       xml:space="preserve"
       style="font-style:normal;font-weight:normal;font-size:40px;line-height:125%;font-family:Sans;letter-spacing:0px;word-spacing:0px;fill:#000000;fill-opacity:1;stroke:none;stroke-width:1px;stroke-linecap:butt;stroke-linejoin:miter;stroke-opacity:1"
       x="425.71429"
       y="833.07642"
       id="text3360"
       sodipodi:linespacing="125%"
       inkscape:export-xdpi="90"
       inkscape:export-ydpi="90"><tspan
         sodipodi:role="line"
         id="tspan3362"
         x="425.71429"
         y="833.07642"
         style="font-size:15px">1</tspan></text>
    <path
       inkscape:connector-curvature="0"
       id="path3364"
       d="m 310,812.3622 120,0"
       style="fill:none;fill-rule:evenodd;stroke:#000000;stroke-width:1px;stroke-linecap:butt;stroke-linejoin:miter;stroke-opacity:1"
       inkscape:export-xdpi="90"
       inkscape:export-ydpi="90" />
    <circle
       style="fill:#ff0000;stroke-width:15;stroke-linecap:butt;stroke-linejoin:miter;stroke-miterlimit:4;stroke-dasharray:none"
       id="circle3366"
       cx="395"
       cy="812.36218"
       r="3"
       inkscape:export-xdpi="90"
       inkscape:export-ydpi="90" />
    <circle
       r="40"
       cy="807.36218"
       cx="520"
       id="path3372"
       style="fill:none;stroke:#000000;stroke-width:1;stroke-linecap:butt;stroke-linejoin:miter;stroke-miterlimit:4;stroke-dasharray:none"
       inkscape:export-xdpi="90"
       inkscape:export-ydpi="90" />
    <g
       id="g4188"
       ns0:preamble=""
       ns0:text="$\\|0&gt;$"
       transform="scale(1.000000,1.000000)">
      <defs
         id="defs4190">
        <g
           id="g4192">
          <symbol
             id="textext-373dd29b-0"
             overflow="visible">
            <path
               id="path4195"
               d=""
               style="stroke:none;" />
          </symbol>
          <symbol
             id="textext-373dd29b-1"
             overflow="visible">
            <path
               id="path4198"
               d="M 1.71875 -7.140625 C 1.71875 -7.296875 1.71875 -7.484375 1.515625 -7.484375 C 1.3125 -7.484375 1.3125 -7.25 1.3125 -7.109375 L 1.3125 2.125 C 1.3125 2.28125 1.3125 2.5 1.515625 2.5 C 1.71875 2.5 1.71875 2.3125 1.71875 2.15625 Z M 3.65625 -7.109375 C 3.65625 -7.265625 3.65625 -7.484375 3.453125 -7.484375 C 3.265625 -7.484375 3.265625 -7.296875 3.265625 -7.140625 L 3.265625 2.15625 C 3.265625 2.3125 3.265625 2.5 3.453125 2.5 C 3.65625 2.5 3.65625 2.265625 3.65625 2.125 Z M 3.65625 -7.109375 "
               style="stroke:none;" />
          </symbol>
          <symbol
             id="textext-373dd29b-2"
             overflow="visible">
            <path
               id="path4201"
               d=""
               style="stroke:none;" />
          </symbol>
          <symbol
             id="textext-373dd29b-3"
             overflow="visible">
            <path
               id="path4204"
               d="M 4.578125 -3.1875 C 4.578125 -3.984375 4.53125 -4.78125 4.1875 -5.515625 C 3.734375 -6.484375 2.90625 -6.640625 2.5 -6.640625 C 1.890625 -6.640625 1.171875 -6.375 0.75 -5.453125 C 0.4375 -4.765625 0.390625 -3.984375 0.390625 -3.1875 C 0.390625 -2.4375 0.421875 -1.546875 0.84375 -0.78125 C 1.265625 0.015625 2 0.21875 2.484375 0.21875 C 3.015625 0.21875 3.78125 0.015625 4.21875 -0.9375 C 4.53125 -1.625 4.578125 -2.40625 4.578125 -3.1875 Z M 2.484375 0 C 2.09375 0 1.5 -0.25 1.328125 -1.203125 C 1.21875 -1.796875 1.21875 -2.71875 1.21875 -3.3125 C 1.21875 -3.953125 1.21875 -4.609375 1.296875 -5.140625 C 1.484375 -6.328125 2.234375 -6.421875 2.484375 -6.421875 C 2.8125 -6.421875 3.46875 -6.234375 3.65625 -5.25 C 3.765625 -4.6875 3.765625 -3.9375 3.765625 -3.3125 C 3.765625 -2.5625 3.765625 -1.890625 3.65625 -1.25 C 3.5 -0.296875 2.9375 0 2.484375 0 Z M 2.484375 0 "
               style="stroke:none;" />
          </symbol>
          <symbol
             id="textext-373dd29b-4"
             overflow="visible">
            <path
               id="path4207"
               d=""
               style="stroke:none;" />
          </symbol>
          <symbol
             id="textext-373dd29b-5"
             overflow="visible">
            <path
               id="path4210"
               d="M 6.734375 -2.265625 C 6.84375 -2.328125 6.921875 -2.375 6.921875 -2.5 C 6.921875 -2.609375 6.84375 -2.65625 6.734375 -2.71875 L 1.203125 -5.3125 C 1.078125 -5.390625 1.0625 -5.390625 1.03125 -5.390625 C 0.921875 -5.390625 0.828125 -5.296875 0.828125 -5.1875 C 0.828125 -5.09375 0.875 -5.03125 1.015625 -4.96875 L 6.25 -2.5 L 1.015625 -0.015625 C 0.875 0.046875 0.828125 0.109375 0.828125 0.203125 C 0.828125 0.3125 0.921875 0.40625 1.03125 0.40625 C 1.0625 0.40625 1.078125 0.40625 1.203125 0.328125 Z M 6.734375 -2.265625 "
               style="stroke:none;" />
          </symbol>
        </g>
      </defs>
      <g
         id="g4477"
         ns0:preamble=""
         ns0:text="$|0\\rangle$"
         transform="translate(292.12946,626.12225)"
         inkscape:export-xdpi="90"
         inkscape:export-ydpi="90">
        <defs
           id="defs4479">
          <g
             id="g4481">
            <symbol
               id="textext-a56edff4-0"
               overflow="visible"
               style="overflow:visible">
              <path
                 id="path4484"
                 d=""
                 style="stroke:none"
                 inkscape:connector-curvature="0" />
            </symbol>
            <symbol
               id="textext-a56edff4-1"
               overflow="visible"
               style="overflow:visible">
              <path
                 id="path4487"
                 d="m 1.578125,-7.125 c 0,-0.171875 0,-0.359375 -0.1875,-0.359375 -0.203125,0 -0.203125,0.1875 -0.203125,0.359375 l 0,9.265625 c 0,0.171875 0,0.359375 0.203125,0.359375 0.1875,0 0.1875,-0.1875 0.1875,-0.359375 z m 0,0"
                 style="stroke:none"
                 inkscape:connector-curvature="0" />
            </symbol>
            <symbol
               id="textext-a56edff4-2"
               overflow="visible"
               style="overflow:visible">
              <path
                 id="path4490"
                 d="M 2.71875,-2.328125 C 2.765625,-2.4375 2.765625,-2.46875 2.765625,-2.5 c 0,-0.015625 0,-0.046875 -0.046875,-0.15625 L 0.984375,-7.25 c -0.0625,-0.171875 -0.125,-0.234375 -0.234375,-0.234375 -0.109375,0 -0.203125,0.09375 -0.203125,0.203125 0,0.03125 0,0.046875 0.046875,0.15625 L 2.359375,-2.5 0.59375,2.109375 C 0.546875,2.21875 0.546875,2.25 0.546875,2.296875 0.546875,2.40625 0.640625,2.5 0.75,2.5 0.875,2.5 0.921875,2.390625 0.953125,2.296875 Z m 0,0"
                 style="stroke:none"
                 inkscape:connector-curvature="0" />
            </symbol>
            <symbol
               id="textext-a56edff4-3"
               overflow="visible"
               style="overflow:visible">
              <path
                 id="path4493"
                 d=""
                 style="stroke:none"
                 inkscape:connector-curvature="0" />
            </symbol>
            <symbol
               id="textext-a56edff4-4"
               overflow="visible"
               style="overflow:visible">
              <path
                 id="path4496"
                 d="m 4.578125,-3.1875 c 0,-0.796875 -0.046875,-1.59375 -0.390625,-2.328125 -0.453125,-0.96875 -1.28125,-1.125 -1.6875,-1.125 -0.609375,0 -1.328125,0.265625 -1.75,1.1875 -0.3125,0.6875 -0.359375,1.46875 -0.359375,2.265625 0,0.75 0.03125,1.640625 0.453125,2.40625 0.421875,0.796875 1.15625,1 1.640625,1 0.53125,0 1.296875,-0.203125 1.734375,-1.15625 0.3125,-0.6875 0.359375,-1.46875 0.359375,-2.25 z M 2.484375,0 C 2.09375,0 1.5,-0.25 1.328125,-1.203125 1.21875,-1.796875 1.21875,-2.71875 1.21875,-3.3125 c 0,-0.640625 0,-1.296875 0.078125,-1.828125 0.1875,-1.1875 0.9375,-1.28125 1.1875,-1.28125 0.328125,0 0.984375,0.1875 1.171875,1.171875 0.109375,0.5625 0.109375,1.3125 0.109375,1.9375 0,0.75 0,1.421875 -0.109375,2.0625 C 3.5,-0.296875 2.9375,0 2.484375,0 Z m 0,0"
                 style="stroke:none"
                 inkscape:connector-curvature="0" />
            </symbol>
          </g>
        </defs>
        <g
           id="textext-a56edff4-5">
          <g
             id="g4499"
             style="fill:#000000;fill-opacity:1">
            <use
               id="use4501"
               y="134.765"
               x="223.43201"
               xlink:href="#textext-a56edff4-1"
               width="100%"
               height="100%" />
          </g>
          <g
             id="g4503"
             style="fill:#000000;fill-opacity:1">
            <use
               id="use4505"
               y="134.765"
               x="226.2"
               xlink:href="#textext-a56edff4-4"
               width="100%"
               height="100%" />
          </g>
          <g
             id="g4507"
             style="fill:#000000;fill-opacity:1">
            <use
               id="use4509"
               y="134.765"
               x="231.181"
               xlink:href="#textext-a56edff4-2"
               width="100%"
               height="100%" />
          </g>
        </g>
      </g>
      <g
         transform="translate(291.70984,722.61598)"
         ns0:text="$|1\\rangle$"
         ns0:preamble=""
         id="g4671"
         inkscape:export-xdpi="90"
         inkscape:export-ydpi="90">
        <defs
           id="defs4673">
          <g
             id="g4675">
            <symbol
               style="overflow:visible"
               overflow="visible"
               id="textext-f90db856-0">
              <path
                 inkscape:connector-curvature="0"
                 style="stroke:none"
                 d=""
                 id="path4678" />
            </symbol>
            <symbol
               style="overflow:visible"
               overflow="visible"
               id="textext-f90db856-1">
              <path
                 inkscape:connector-curvature="0"
                 style="stroke:none"
                 d="m 1.578125,-7.125 c 0,-0.171875 0,-0.359375 -0.1875,-0.359375 -0.203125,0 -0.203125,0.1875 -0.203125,0.359375 l 0,9.265625 c 0,0.171875 0,0.359375 0.203125,0.359375 0.1875,0 0.1875,-0.1875 0.1875,-0.359375 z m 0,0"
                 id="path4681" />
            </symbol>
            <symbol
               style="overflow:visible"
               overflow="visible"
               id="textext-f90db856-2">
              <path
                 inkscape:connector-curvature="0"
                 style="stroke:none"
                 d="M 2.71875,-2.328125 C 2.765625,-2.4375 2.765625,-2.46875 2.765625,-2.5 c 0,-0.015625 0,-0.046875 -0.046875,-0.15625 L 0.984375,-7.25 c -0.0625,-0.171875 -0.125,-0.234375 -0.234375,-0.234375 -0.109375,0 -0.203125,0.09375 -0.203125,0.203125 0,0.03125 0,0.046875 0.046875,0.15625 L 2.359375,-2.5 0.59375,2.109375 C 0.546875,2.21875 0.546875,2.25 0.546875,2.296875 0.546875,2.40625 0.640625,2.5 0.75,2.5 0.875,2.5 0.921875,2.390625 0.953125,2.296875 Z m 0,0"
                 id="path4684" />
            </symbol>
            <symbol
               style="overflow:visible"
               overflow="visible"
               id="textext-f90db856-3">
              <path
                 inkscape:connector-curvature="0"
                 style="stroke:none"
                 d=""
                 id="path4687" />
            </symbol>
            <symbol
               style="overflow:visible"
               overflow="visible"
               id="textext-f90db856-4">
              <path
                 inkscape:connector-curvature="0"
                 style="stroke:none"
                 d="m 2.9375,-6.375 c 0,-0.25 0,-0.265625 -0.234375,-0.265625 C 2.078125,-6 1.203125,-6 0.890625,-6 l 0,0.3125 c 0.203125,0 0.78125,0 1.296875,-0.265625 l 0,5.171875 c 0,0.359375 -0.03125,0.46875 -0.921875,0.46875 l -0.3125,0 0,0.3125 c 0.34375,-0.03125 1.203125,-0.03125 1.609375,-0.03125 0.390625,0 1.265625,0 1.609375,0.03125 l 0,-0.3125 -0.3125,0 c -0.90625,0 -0.921875,-0.109375 -0.921875,-0.46875 z m 0,0"
                 id="path4690" />
            </symbol>
          </g>
        </defs>
        <g
           id="textext-f90db856-5">
          <g
             style="fill:#000000;fill-opacity:1"
             id="g4693">
            <use
               height="100%"
               width="100%"
               xlink:href="#textext-f90db856-1"
               x="223.43201"
               y="134.765"
               id="use4695" />
          </g>
          <g
             style="fill:#000000;fill-opacity:1"
             id="g4697">
            <use
               height="100%"
               width="100%"
               xlink:href="#textext-f90db856-4"
               x="226.2"
               y="134.765"
               id="use4699" />
          </g>
          <g
             style="fill:#000000;fill-opacity:1"
             id="g4701">
            <use
               height="100%"
               width="100%"
               xlink:href="#textext-f90db856-2"
               x="231.181"
               y="134.765"
               id="use4703" />
          </g>
        </g>
      </g>
      <text
         sodipodi:linespacing="125%"
         id="text4784"
         y="692.85834"
         x="147.76221"
         style="font-style:normal;font-weight:normal;font-size:15px;line-height:125%;font-family:Sans;letter-spacing:0px;word-spacing:0px;fill:#000000;fill-opacity:1;stroke:none;stroke-width:1px;stroke-linecap:butt;stroke-linejoin:miter;stroke-opacity:1"
         xml:space="preserve"><tspan
           y="692.85834"
           x="147.76221"
           id="tspan4786"
           sodipodi:role="line">Lógico</tspan></text>
      <text
         sodipodi:linespacing="125%"
         id="text4788"
         y="695.4342"
         x="319.00748"
         style="font-style:normal;font-weight:normal;font-size:15px;line-height:125%;font-family:Sans;letter-spacing:0px;word-spacing:0px;fill:#000000;fill-opacity:1;stroke:none;stroke-width:1px;stroke-linecap:butt;stroke-linejoin:miter;stroke-opacity:1"
         xml:space="preserve"><tspan
           y="695.4342"
           x="319.00748"
           id="tspan4790"
           sodipodi:role="line">Probabilístico</tspan></text>
      <text
         sodipodi:linespacing="125%"
         id="text4792"
         y="695.13184"
         x="490"
         style="font-style:normal;font-weight:normal;font-size:15px;line-height:125%;font-family:Sans;letter-spacing:0px;word-spacing:0px;fill:#000000;fill-opacity:1;stroke:none;stroke-width:1px;stroke-linecap:butt;stroke-linejoin:miter;stroke-opacity:1"
         xml:space="preserve"><tspan
           y="695.13184"
           x="490"
           id="tspan4794"
           sodipodi:role="line">Cuántico</tspan></text>
      <path
         style="fill:none;fill-rule:evenodd;stroke:#000000;stroke-width:0.5;stroke-linecap:butt;stroke-linejoin:miter;stroke-opacity:1;stroke-miterlimit:4;stroke-dasharray:none;stroke-dashoffset:0"
         d="m 510.29858,817.06363 c -9.05662,16.41512 -28.63532,9.60575 -32.2929,28.37156"
         id="path5366"
         inkscape:connector-curvature="0"
         sodipodi:nodetypes="cc"
         inkscape:export-xdpi="90"
         inkscape:export-ydpi="90" />
      <g
         transform="translate(337.05117,674.68171)"
         ns0:text="$\\frac{|0\\rangle+i|1\\rangle}{\\sqrt{2}}$"
         ns0:preamble=""
         id="g5488"
         inkscape:export-xdpi="90"
         inkscape:export-ydpi="90">
        <defs
           id="defs5490">
          <g
             id="g5492">
            <symbol
               style="overflow:visible"
               overflow="visible"
               id="textext-4db1810b-0">
              <path
                 inkscape:connector-curvature="0"
                 style="stroke:none"
                 d=""
                 id="path5495" />
            </symbol>
            <symbol
               style="overflow:visible"
               overflow="visible"
               id="textext-4db1810b-1">
              <path
                 inkscape:connector-curvature="0"
                 style="stroke:none"
                 d="m 1.359375,-4.953125 c 0,-0.109375 0,-0.265625 -0.171875,-0.265625 -0.171875,0 -0.171875,0.15625 -0.171875,0.265625 l 0,6.421875 c 0,0.109375 0,0.265625 0.15625,0.265625 0.1875,0 0.1875,-0.15625 0.1875,-0.265625 z m 0,0"
                 id="path5498" />
            </symbol>
            <symbol
               style="overflow:visible"
               overflow="visible"
               id="textext-4db1810b-2">
              <path
                 inkscape:connector-curvature="0"
                 style="stroke:none"
                 d="M 2.203125,-1.609375 C 2.25,-1.703125 2.25,-1.71875 2.25,-1.734375 2.25,-1.78125 2.25,-1.78125 2.203125,-1.875 L 0.90625,-5.046875 C 0.859375,-5.15625 0.8125,-5.21875 0.703125,-5.21875 c -0.078125,0 -0.171875,0.0625 -0.171875,0.171875 0,0.015625 0,0.03125 0.046875,0.125 L 1.890625,-1.75 0.578125,1.421875 C 0.53125,1.53125 0.53125,1.546875 0.53125,1.5625 c 0,0.109375 0.09375,0.171875 0.171875,0.171875 0.125,0 0.140625,-0.078125 0.1875,-0.171875 z m 0,0"
                 id="path5501" />
            </symbol>
            <symbol
               style="overflow:visible"
               overflow="visible"
               id="textext-4db1810b-3">
              <path
                 inkscape:connector-curvature="0"
                 style="stroke:none"
                 d="M 3.09375,5.875 1.71875,3.15625 C 1.6875,3.09375 1.671875,3.046875 1.609375,3.046875 c -0.03125,0 -0.046875,0 -0.109375,0.046875 l -0.75,0.5 C 0.65625,3.65625 0.65625,3.6875 0.65625,3.71875 0.65625,3.75 0.6875,3.8125 0.75,3.8125 c 0.03125,0 0.046875,0 0.140625,-0.0625 C 0.96875,3.6875 1.15625,3.546875 1.25,3.5 L 2.78125,6.515625 C 2.828125,6.609375 2.84375,6.625 2.9375,6.625 3,6.625 3.078125,6.625 3.140625,6.5 l 3.5,-6.53125 c 0.0625,-0.09375 0.0625,-0.09375 0.0625,-0.140625 0,-0.109375 -0.09375,-0.171875 -0.171875,-0.171875 -0.09375,0 -0.140625,0.0625 -0.171875,0.15625 z m 0,0"
                 id="path5504" />
            </symbol>
            <symbol
               style="overflow:visible"
               overflow="visible"
               id="textext-4db1810b-4">
              <path
                 inkscape:connector-curvature="0"
                 style="stroke:none"
                 d=""
                 id="path5507" />
            </symbol>
            <symbol
               style="overflow:visible"
               overflow="visible"
               id="textext-4db1810b-5">
              <path
                 inkscape:connector-curvature="0"
                 style="stroke:none"
                 d="M 3.59375,-2.21875 C 3.59375,-2.984375 3.5,-3.546875 3.1875,-4.03125 2.96875,-4.34375 2.53125,-4.625 1.984375,-4.625 c -1.625,0 -1.625,1.90625 -1.625,2.40625 0,0.5 0,2.359375 1.625,2.359375 1.609375,0 1.609375,-1.859375 1.609375,-2.359375 z M 1.984375,-0.0625 c -0.328125,0 -0.75,-0.1875 -0.890625,-0.75 C 1,-1.21875 1,-1.796875 1,-2.3125 1,-2.828125 1,-3.359375 1.09375,-3.734375 1.25,-4.28125 1.6875,-4.4375 1.984375,-4.4375 c 0.375,0 0.734375,0.234375 0.859375,0.640625 0.109375,0.375 0.125,0.875 0.125,1.484375 0,0.515625 0,1.03125 -0.09375,1.46875 -0.140625,0.640625 -0.609375,0.78125 -0.890625,0.78125 z m 0,0"
                 id="path5510" />
            </symbol>
            <symbol
               style="overflow:visible"
               overflow="visible"
               id="textext-4db1810b-6">
              <path
                 inkscape:connector-curvature="0"
                 style="stroke:none"
                 d="m 3.21875,-1.578125 2.140625,0 c 0.09375,0 0.25,0 0.25,-0.15625 0,-0.1875 -0.15625,-0.1875 -0.25,-0.1875 l -2.140625,0 0,-2.140625 c 0,-0.078125 0,-0.25 -0.15625,-0.25 -0.171875,0 -0.171875,0.15625 -0.171875,0.25 l 0,2.140625 -2.140625,0 c -0.09375,0 -0.265625,0 -0.265625,0.171875 0,0.171875 0.15625,0.171875 0.265625,0.171875 l 2.140625,0 0,2.140625 c 0,0.09375 0,0.265625 0.15625,0.265625 0.171875,0 0.171875,-0.171875 0.171875,-0.265625 z m 0,0"
                 id="path5513" />
            </symbol>
            <symbol
               style="overflow:visible"
               overflow="visible"
               id="textext-4db1810b-7">
              <path
                 inkscape:connector-curvature="0"
                 style="stroke:none"
                 d="m 2.328125,-4.4375 c 0,-0.1875 0,-0.1875 -0.203125,-0.1875 -0.453125,0.4375 -1.078125,0.4375 -1.359375,0.4375 l 0,0.25 c 0.15625,0 0.625,0 1,-0.1875 l 0,3.546875 c 0,0.234375 0,0.328125 -0.6875,0.328125 l -0.265625,0 0,0.25 c 0.125,0 0.984375,-0.03125 1.234375,-0.03125 0.21875,0 1.09375,0.03125 1.25,0.03125 l 0,-0.25 -0.265625,0 c -0.703125,0 -0.703125,-0.09375 -0.703125,-0.328125 z m 0,0"
                 id="path5516" />
            </symbol>
            <symbol
               style="overflow:visible"
               overflow="visible"
               id="textext-4db1810b-8">
              <path
                 inkscape:connector-curvature="0"
                 style="stroke:none"
                 d="m 3.515625,-1.265625 -0.234375,0 c -0.015625,0.15625 -0.09375,0.5625 -0.1875,0.625 -0.046875,0.046875 -0.578125,0.046875 -0.6875,0.046875 l -1.28125,0 c 0.734375,-0.640625 0.984375,-0.84375 1.390625,-1.171875 0.515625,-0.40625 1,-0.84375 1,-1.5 0,-0.84375 -0.734375,-1.359375 -1.625,-1.359375 -0.859375,0 -1.453125,0.609375 -1.453125,1.25 0,0.34375 0.296875,0.390625 0.375,0.390625 0.15625,0 0.359375,-0.125 0.359375,-0.375 0,-0.125 -0.046875,-0.375 -0.40625,-0.375 C 0.984375,-4.21875 1.453125,-4.375 1.78125,-4.375 c 0.703125,0 1.0625,0.546875 1.0625,1.109375 0,0.609375 -0.4375,1.078125 -0.65625,1.328125 L 0.515625,-0.265625 C 0.4375,-0.203125 0.4375,-0.1875 0.4375,0 l 2.875,0 z m 0,0"
                 id="path5519" />
            </symbol>
            <symbol
               style="overflow:visible"
               overflow="visible"
               id="textext-4db1810b-9">
              <path
                 inkscape:connector-curvature="0"
                 style="stroke:none"
                 d=""
                 id="path5522" />
            </symbol>
            <symbol
               style="overflow:visible"
               overflow="visible"
               id="textext-4db1810b-10">
              <path
                 inkscape:connector-curvature="0"
                 style="stroke:none"
                 d="m 2.265625,-4.359375 c 0,-0.109375 -0.09375,-0.265625 -0.28125,-0.265625 -0.1875,0 -0.390625,0.1875 -0.390625,0.390625 0,0.109375 0.078125,0.265625 0.28125,0.265625 0.1875,0 0.390625,-0.203125 0.390625,-0.390625 z M 0.84375,-0.8125 c -0.03125,0.09375 -0.0625,0.171875 -0.0625,0.296875 0,0.328125 0.265625,0.578125 0.65625,0.578125 0.6875,0 1,-0.953125 1,-1.0625 0,-0.09375 -0.09375,-0.09375 -0.109375,-0.09375 -0.09375,0 -0.109375,0.046875 -0.140625,0.125 -0.15625,0.5625 -0.453125,0.84375 -0.734375,0.84375 -0.140625,0 -0.171875,-0.09375 -0.171875,-0.25 0,-0.15625 0.046875,-0.28125 0.109375,-0.4375 C 1.46875,-1 1.546875,-1.1875 1.609375,-1.375 1.671875,-1.546875 1.9375,-2.171875 1.953125,-2.265625 1.984375,-2.328125 2,-2.40625 2,-2.484375 2,-2.8125 1.71875,-3.078125 1.34375,-3.078125 0.640625,-3.078125 0.328125,-2.125 0.328125,-2 c 0,0.078125 0.09375,0.078125 0.125,0.078125 0.09375,0 0.09375,-0.03125 0.125,-0.109375 C 0.75,-2.625 1.0625,-2.875 1.3125,-2.875 c 0.109375,0 0.171875,0.046875 0.171875,0.234375 0,0.171875 -0.03125,0.265625 -0.203125,0.703125 z m 0,0"
                 id="path5525" />
            </symbol>
          </g>
        </defs>
        <g
           id="textext-4db1810b-11">
          <g
             style="fill:#000000;fill-opacity:1"
             id="g5528">
            <use
               height="100%"
               width="100%"
               xlink:href="#textext-4db1810b-1"
               x="224.62801"
               y="130.033"
               id="use5530" />
          </g>
          <g
             style="fill:#000000;fill-opacity:1"
             id="g5532">
            <use
               height="100%"
               width="100%"
               xlink:href="#textext-4db1810b-5"
               x="226.994"
               y="130.033"
               id="use5534" />
          </g>
          <g
             style="fill:#000000;fill-opacity:1"
             id="g5536">
            <use
               height="100%"
               width="100%"
               xlink:href="#textext-4db1810b-2"
               x="230.965"
               y="130.033"
               id="use5538" />
          </g>
          <g
             style="fill:#000000;fill-opacity:1"
             id="g5540">
            <use
               height="100%"
               width="100%"
               xlink:href="#textext-4db1810b-6"
               x="234.189"
               y="130.033"
               id="use5542" />
          </g>
          <g
             style="fill:#000000;fill-opacity:1"
             id="g5544">
            <use
               height="100%"
               width="100%"
               xlink:href="#textext-4db1810b-10"
               x="240.30499"
               y="130.033"
               id="use5546" />
          </g>
          <g
             style="fill:#000000;fill-opacity:1"
             id="g5548">
            <use
               height="100%"
               width="100%"
               xlink:href="#textext-4db1810b-1"
               x="243.12399"
               y="130.033"
               id="use5550" />
          </g>
          <g
             style="fill:#000000;fill-opacity:1"
             id="g5552">
            <use
               height="100%"
               width="100%"
               xlink:href="#textext-4db1810b-7"
               x="245.49001"
               y="130.033"
               id="use5554" />
          </g>
          <g
             style="fill:#000000;fill-opacity:1"
             id="g5556">
            <use
               height="100%"
               width="100%"
               xlink:href="#textext-4db1810b-2"
               x="249.461"
               y="130.033"
               id="use5558" />
          </g>
          <path
             inkscape:connector-curvature="0"
             style="fill:none;stroke:#000000;stroke-width:0.398;stroke-linecap:butt;stroke-linejoin:miter;stroke-miterlimit:10;stroke-opacity:1"
             d="m 9.0625e-4,-0.001 28.05468775,0"
             transform="matrix(1,0,0,-1,224.628,132.374)"
             id="path5560" />
          <g
             style="fill:#000000;fill-opacity:1"
             id="g5562">
            <use
               height="100%"
               width="100%"
               xlink:href="#textext-4db1810b-3"
               x="233.39799"
               y="133.649"
               id="use5564" />
          </g>
          <path
             inkscape:connector-curvature="0"
             style="fill:none;stroke:#000000;stroke-width:0.33899999;stroke-linecap:butt;stroke-linejoin:miter;stroke-miterlimit:10;stroke-opacity:1"
             d="m -0.00159375,-4.6875e-4 3.97265675,0"
             transform="matrix(1,0,0,-1,239.943,133.48)"
             id="path5566" />
          <g
             style="fill:#000000;fill-opacity:1"
             id="g5568">
            <use
               height="100%"
               width="100%"
               xlink:href="#textext-4db1810b-8"
               x="239.94299"
               y="139.463"
               id="use5570" />
          </g>
        </g>
      </g>
      <g
         id="g5922"
         ns0:preamble=""
         ns0:text="$\\frac{|0\\rangle+|1\\rangle}{\\sqrt{2}}$"
         transform="translate(240.68595,721.93643)"
         inkscape:export-xdpi="90"
         inkscape:export-ydpi="90">
        <defs
           id="defs5924">
          <g
             id="g5926">
            <symbol
               id="textext-08eafd6f-0"
               overflow="visible"
               style="overflow:visible">
              <path
                 id="path5929"
                 d=""
                 style="stroke:none"
                 inkscape:connector-curvature="0" />
            </symbol>
            <symbol
               id="textext-08eafd6f-1"
               overflow="visible"
               style="overflow:visible">
              <path
                 id="path5932"
                 d="m 1.359375,-4.953125 c 0,-0.109375 0,-0.265625 -0.171875,-0.265625 -0.171875,0 -0.171875,0.15625 -0.171875,0.265625 l 0,6.421875 c 0,0.109375 0,0.265625 0.15625,0.265625 0.1875,0 0.1875,-0.15625 0.1875,-0.265625 z m 0,0"
                 style="stroke:none"
                 inkscape:connector-curvature="0" />
            </symbol>
            <symbol
               id="textext-08eafd6f-2"
               overflow="visible"
               style="overflow:visible">
              <path
                 id="path5935"
                 d="M 2.203125,-1.609375 C 2.25,-1.703125 2.25,-1.71875 2.25,-1.734375 2.25,-1.78125 2.25,-1.78125 2.203125,-1.875 L 0.90625,-5.046875 C 0.859375,-5.15625 0.8125,-5.21875 0.703125,-5.21875 c -0.078125,0 -0.171875,0.0625 -0.171875,0.171875 0,0.015625 0,0.03125 0.046875,0.125 L 1.890625,-1.75 0.578125,1.421875 C 0.53125,1.53125 0.53125,1.546875 0.53125,1.5625 c 0,0.109375 0.09375,0.171875 0.171875,0.171875 0.125,0 0.140625,-0.078125 0.1875,-0.171875 z m 0,0"
                 style="stroke:none"
                 inkscape:connector-curvature="0" />
            </symbol>
            <symbol
               id="textext-08eafd6f-3"
               overflow="visible"
               style="overflow:visible">
              <path
                 id="path5938"
                 d="M 3.09375,5.875 1.71875,3.15625 C 1.6875,3.09375 1.671875,3.046875 1.609375,3.046875 c -0.03125,0 -0.046875,0 -0.109375,0.046875 l -0.75,0.5 C 0.65625,3.65625 0.65625,3.6875 0.65625,3.71875 0.65625,3.75 0.6875,3.8125 0.75,3.8125 c 0.03125,0 0.046875,0 0.140625,-0.0625 C 0.96875,3.6875 1.15625,3.546875 1.25,3.5 L 2.78125,6.515625 C 2.828125,6.609375 2.84375,6.625 2.9375,6.625 3,6.625 3.078125,6.625 3.140625,6.5 l 3.5,-6.53125 c 0.0625,-0.09375 0.0625,-0.09375 0.0625,-0.140625 0,-0.109375 -0.09375,-0.171875 -0.171875,-0.171875 -0.09375,0 -0.140625,0.0625 -0.171875,0.15625 z m 0,0"
                 style="stroke:none"
                 inkscape:connector-curvature="0" />
            </symbol>
            <symbol
               id="textext-08eafd6f-4"
               overflow="visible"
               style="overflow:visible">
              <path
                 id="path5941"
                 d=""
                 style="stroke:none"
                 inkscape:connector-curvature="0" />
            </symbol>
            <symbol
               id="textext-08eafd6f-5"
               overflow="visible"
               style="overflow:visible">
              <path
                 id="path5944"
                 d="M 3.59375,-2.21875 C 3.59375,-2.984375 3.5,-3.546875 3.1875,-4.03125 2.96875,-4.34375 2.53125,-4.625 1.984375,-4.625 c -1.625,0 -1.625,1.90625 -1.625,2.40625 0,0.5 0,2.359375 1.625,2.359375 1.609375,0 1.609375,-1.859375 1.609375,-2.359375 z M 1.984375,-0.0625 c -0.328125,0 -0.75,-0.1875 -0.890625,-0.75 C 1,-1.21875 1,-1.796875 1,-2.3125 1,-2.828125 1,-3.359375 1.09375,-3.734375 1.25,-4.28125 1.6875,-4.4375 1.984375,-4.4375 c 0.375,0 0.734375,0.234375 0.859375,0.640625 0.109375,0.375 0.125,0.875 0.125,1.484375 0,0.515625 0,1.03125 -0.09375,1.46875 -0.140625,0.640625 -0.609375,0.78125 -0.890625,0.78125 z m 0,0"
                 style="stroke:none"
                 inkscape:connector-curvature="0" />
            </symbol>
            <symbol
               id="textext-08eafd6f-6"
               overflow="visible"
               style="overflow:visible">
              <path
                 id="path5947"
                 d="m 3.21875,-1.578125 2.140625,0 c 0.09375,0 0.25,0 0.25,-0.15625 0,-0.1875 -0.15625,-0.1875 -0.25,-0.1875 l -2.140625,0 0,-2.140625 c 0,-0.078125 0,-0.25 -0.15625,-0.25 -0.171875,0 -0.171875,0.15625 -0.171875,0.25 l 0,2.140625 -2.140625,0 c -0.09375,0 -0.265625,0 -0.265625,0.171875 0,0.171875 0.15625,0.171875 0.265625,0.171875 l 2.140625,0 0,2.140625 c 0,0.09375 0,0.265625 0.15625,0.265625 0.171875,0 0.171875,-0.171875 0.171875,-0.265625 z m 0,0"
                 style="stroke:none"
                 inkscape:connector-curvature="0" />
            </symbol>
            <symbol
               id="textext-08eafd6f-7"
               overflow="visible"
               style="overflow:visible">
              <path
                 id="path5950"
                 d="m 2.328125,-4.4375 c 0,-0.1875 0,-0.1875 -0.203125,-0.1875 -0.453125,0.4375 -1.078125,0.4375 -1.359375,0.4375 l 0,0.25 c 0.15625,0 0.625,0 1,-0.1875 l 0,3.546875 c 0,0.234375 0,0.328125 -0.6875,0.328125 l -0.265625,0 0,0.25 c 0.125,0 0.984375,-0.03125 1.234375,-0.03125 0.21875,0 1.09375,0.03125 1.25,0.03125 l 0,-0.25 -0.265625,0 c -0.703125,0 -0.703125,-0.09375 -0.703125,-0.328125 z m 0,0"
                 style="stroke:none"
                 inkscape:connector-curvature="0" />
            </symbol>
            <symbol
               id="textext-08eafd6f-8"
               overflow="visible"
               style="overflow:visible">
              <path
                 id="path5953"
                 d="m 3.515625,-1.265625 -0.234375,0 c -0.015625,0.15625 -0.09375,0.5625 -0.1875,0.625 -0.046875,0.046875 -0.578125,0.046875 -0.6875,0.046875 l -1.28125,0 c 0.734375,-0.640625 0.984375,-0.84375 1.390625,-1.171875 0.515625,-0.40625 1,-0.84375 1,-1.5 0,-0.84375 -0.734375,-1.359375 -1.625,-1.359375 -0.859375,0 -1.453125,0.609375 -1.453125,1.25 0,0.34375 0.296875,0.390625 0.375,0.390625 0.15625,0 0.359375,-0.125 0.359375,-0.375 0,-0.125 -0.046875,-0.375 -0.40625,-0.375 C 0.984375,-4.21875 1.453125,-4.375 1.78125,-4.375 c 0.703125,0 1.0625,0.546875 1.0625,1.109375 0,0.609375 -0.4375,1.078125 -0.65625,1.328125 L 0.515625,-0.265625 C 0.4375,-0.203125 0.4375,-0.1875 0.4375,0 l 2.875,0 z m 0,0"
                 style="stroke:none"
                 inkscape:connector-curvature="0" />
            </symbol>
          </g>
        </defs>
        <g
           id="textext-08eafd6f-9">
          <g
             id="g5956"
             style="fill:#000000;fill-opacity:1">
            <use
               id="use5958"
               y="130.033"
               x="224.62801"
               xlink:href="#textext-08eafd6f-1"
               width="100%"
               height="100%" />
          </g>
          <g
             id="g5960"
             style="fill:#000000;fill-opacity:1">
            <use
               id="use5962"
               y="130.033"
               x="226.994"
               xlink:href="#textext-08eafd6f-5"
               width="100%"
               height="100%" />
          </g>
          <g
             id="g5964"
             style="fill:#000000;fill-opacity:1">
            <use
               id="use5966"
               y="130.033"
               x="230.965"
               xlink:href="#textext-08eafd6f-2"
               width="100%"
               height="100%" />
          </g>
          <g
             id="g5968"
             style="fill:#000000;fill-opacity:1">
            <use
               id="use5970"
               y="130.033"
               x="234.189"
               xlink:href="#textext-08eafd6f-6"
               width="100%"
               height="100%" />
          </g>
          <g
             id="g5972"
             style="fill:#000000;fill-opacity:1">
            <use
               id="use5974"
               y="130.033"
               x="240.30499"
               xlink:href="#textext-08eafd6f-1"
               width="100%"
               height="100%" />
          </g>
          <g
             id="g5976"
             style="fill:#000000;fill-opacity:1">
            <use
               id="use5978"
               y="130.033"
               x="242.67101"
               xlink:href="#textext-08eafd6f-7"
               width="100%"
               height="100%" />
          </g>
          <g
             id="g5980"
             style="fill:#000000;fill-opacity:1">
            <use
               id="use5982"
               y="130.033"
               x="246.642"
               xlink:href="#textext-08eafd6f-2"
               width="100%"
               height="100%" />
          </g>
          <path
             id="path5984"
             transform="matrix(1,0,0,-1,224.628,132.374)"
             d="m 9.0625e-4,-0.001 25.23828075,0"
             style="fill:none;stroke:#000000;stroke-width:0.398;stroke-linecap:butt;stroke-linejoin:miter;stroke-miterlimit:10;stroke-opacity:1"
             inkscape:connector-curvature="0" />
          <g
             id="g5986"
             style="fill:#000000;fill-opacity:1">
            <use
               id="use5988"
               y="133.649"
               x="231.989"
               xlink:href="#textext-08eafd6f-3"
               width="100%"
               height="100%" />
          </g>
          <path
             id="path5990"
             transform="matrix(1,0,0,-1,238.534,133.48)"
             d="m 0.00115625,-4.6875e-4 3.96874975,0"
             style="fill:none;stroke:#000000;stroke-width:0.33899999;stroke-linecap:butt;stroke-linejoin:miter;stroke-miterlimit:10;stroke-opacity:1"
             inkscape:connector-curvature="0" />
          <g
             id="g5992"
             style="fill:#000000;fill-opacity:1">
            <use
               id="use5994"
               y="139.463"
               x="238.534"
               xlink:href="#textext-08eafd6f-8"
               width="100%"
               height="100%" />
          </g>
        </g>
      </g>
    </g>
    <circle
       r="3"
       cy="812.36218"
       cx="240"
       id="path4796"
       style="fill:#ff0000;stroke:none;stroke-width:1;stroke-linecap:butt;stroke-linejoin:miter;stroke-miterlimit:4;stroke-dasharray:none"
       inkscape:export-xdpi="90"
       inkscape:export-ydpi="90" />
    <text
       sodipodi:linespacing="125%"
       id="text4798"
       y="833.37"
       x="383.99222"
       style="font-style:normal;font-weight:normal;font-size:15px;line-height:125%;font-family:Sans;letter-spacing:0px;word-spacing:0px;fill:#000000;fill-opacity:1;stroke:none;stroke-width:1px;stroke-linecap:butt;stroke-linejoin:miter;stroke-opacity:1"
       xml:space="preserve"
       inkscape:export-xdpi="90"
       inkscape:export-ydpi="90"><tspan
         y="833.37"
         x="383.99222"
         id="tspan4800"
         sodipodi:role="line">0.7</tspan></text>
    <path
       sodipodi:nodetypes="cc"
       inkscape:connector-curvature="0"
       id="path4802"
       d="m 520,807.36218 13.91764,-23.42156"
       style="fill:none;fill-rule:evenodd;stroke:#ff0000;stroke-width:2;stroke-linecap:butt;stroke-linejoin:miter;stroke-miterlimit:4;stroke-dasharray:none;stroke-opacity:1;marker-end:url(#Arrow1Send)"
       inkscape:export-xdpi="90"
       inkscape:export-ydpi="90" />
    <path
       inkscape:connector-curvature="0"
       id="path5074"
       d="m 535,812.36218 0,-30"
       style="fill:none;fill-rule:evenodd;stroke:#000000;stroke-width:0.5;stroke-linecap:butt;stroke-linejoin:round;stroke-opacity:1;stroke-miterlimit:4;stroke-dasharray:0.5, 0.50000000000000000;stroke-dashoffset:0"
       inkscape:export-xdpi="90"
       inkscape:export-ydpi="90" />
    <path
       sodipodi:nodetypes="ccccc"
       style="fill:none;fill-rule:evenodd;stroke:#000000;stroke-width:0.5;stroke-linecap:butt;stroke-linejoin:round;stroke-miterlimit:4;stroke-dasharray:0.5, 0.5;stroke-dashoffset:0;stroke-opacity:1"
       d="m 540,777.36218 -20,0 -5,5 20,0 5,-5"
       id="path5076"
       inkscape:connector-curvature="0"
       inkscape:export-xdpi="90"
       inkscape:export-ydpi="90" />
    <path
       sodipodi:nodetypes="cc"
       style="fill:none;fill-rule:evenodd;stroke:#000000;stroke-width:0.5;stroke-linecap:butt;stroke-linejoin:round;stroke-miterlimit:4;stroke-dasharray:0.5, 0.50000000000000000;stroke-dashoffset:0;stroke-opacity:1"
       d="m 515,812.36218 0,-30"
       id="path5078"
       inkscape:connector-curvature="0"
       inkscape:export-xdpi="90"
       inkscape:export-ydpi="90" />
    <path
       sodipodi:nodetypes="cc"
       inkscape:connector-curvature="0"
       id="path5080"
       d="M 539.75,807.3622 540,777.36218"
       style="fill:none;fill-rule:evenodd;stroke:#000000;stroke-width:0.5;stroke-linecap:butt;stroke-linejoin:round;stroke-miterlimit:4;stroke-dasharray:0.5, 0.50000000000000000;stroke-dashoffset:0;stroke-opacity:1"
       inkscape:export-xdpi="90"
       inkscape:export-ydpi="90" />
    <ellipse
       ry="40"
       rx="10"
       cy="807.36218"
       cx="520"
       id="path5082"
       style="fill:none;stroke:#000000;stroke-width:0.2;stroke-linecap:butt;stroke-linejoin:round;stroke-miterlimit:4;stroke-dasharray:none;stroke-dashoffset:0"
       inkscape:export-xdpi="90"
       inkscape:export-ydpi="90" />
    <ellipse
       ry="10"
       rx="40"
       cy="807.36218"
       cx="520"
       id="path5086"
       style="fill:none;stroke:#000000;stroke-width:0.2;stroke-linecap:butt;stroke-linejoin:round;stroke-miterlimit:4;stroke-dasharray:none;stroke-dashoffset:0"
       inkscape:export-xdpi="90"
       inkscape:export-ydpi="90" />
    <path
       inkscape:connector-curvature="0"
       id="path5760"
       d="m 540,807.36218 -20,0 -5,5 20,0 5,-5"
       style="fill:none;fill-rule:evenodd;stroke:#000000;stroke-width:0.5;stroke-linecap:butt;stroke-linejoin:round;stroke-miterlimit:4;stroke-dasharray:0.5, 0.5;stroke-dashoffset:0;stroke-opacity:1"
       sodipodi:nodetypes="ccccc"
       inkscape:export-xdpi="90"
       inkscape:export-ydpi="90" />
    <path
       style="fill:none;fill-rule:evenodd;stroke:#000000;stroke-width:0.5;stroke-linecap:butt;stroke-linejoin:round;stroke-miterlimit:4;stroke-dasharray:0.5, 0.5;stroke-dashoffset:0;stroke-opacity:1"
       d="M 519.75,807.3622 520,777.36218"
       id="path5762"
       inkscape:connector-curvature="0"
       sodipodi:nodetypes="cc"
       inkscape:export-xdpi="90"
       inkscape:export-ydpi="90" />
  </g>
</svg>
