<?xml version="1.0" encoding="UTF-8"?>
<svg xmlns="http://www.w3.org/2000/svg" xmlns:xlink="http://www.w3.org/1999/xlink" fill-opacity="1" color-rendering="auto" color-interpolation="auto" stroke="black" text-rendering="auto" stroke-linecap="square" width="731" stroke-miterlimit="10" stroke-opacity="1" shape-rendering="auto" fill="black" stroke-dasharray="none" font-weight="normal" stroke-width="1" height="479" font-family="'Dialog'" font-style="normal" stroke-linejoin="miter" font-size="12" stroke-dashoffset="0" image-rendering="auto">
  <!--Generated by ySVG-->
  <defs id="genericDefs"/>
  <g>
    <defs id="defs1">
      <clipPath clipPathUnits="userSpaceOnUse" id="clipPath1">
        <path d="M0 0 L731 0 L731 479 L0 479 L0 0 Z"/>
      </clipPath>
      <clipPath clipPathUnits="userSpaceOnUse" id="clipPath2">
        <path d="M-215 -94 L569.7061 -94 L569.7061 420.1918 L-215 420.1918 L-215 -94 Z"/>
      </clipPath>
    </defs>
    <g fill="white" transform="scale(0.9316,0.9316) translate(215,94)" stroke="white">
      <rect x="-215" width="785" height="515" y="-94" clip-path="url(#clipPath2)" stroke="none"/>
    </g>
    <g stroke-linecap="butt" transform="matrix(0.9316,0,0,0.9316,200.2852,87.5665)" stroke-miterlimit="1.45">
      <rect x="-196.4" y="-81.925" clip-path="url(#clipPath2)" fill="none" width="80" rx="20" ry="20" height="40"/>
      <text x="-172.9937" xml:space="preserve" y="-64.7531" font-family="sans-serif" clip-path="url(#clipPath2)" stroke="none">inicio</text>
      <text x="-171.4703" xml:space="preserve" y="-50.7844" font-family="sans-serif" clip-path="url(#clipPath2)" stroke="none">t = 0</text>
    </g>
    <g stroke-linecap="butt" transform="matrix(0.9316,0,0,0.9316,200.2852,87.5665)" stroke-miterlimit="1.45">
      <rect x="-140.9" y="123.9375" clip-path="url(#clipPath2)" fill="none" width="80" rx="20" ry="20" height="40"/>
      <text x="-108.9039" xml:space="preserve" y="148.0938" font-family="sans-serif" clip-path="url(#clipPath2)" stroke="none">fin</text>
    </g>
    <g stroke-linecap="butt" transform="matrix(0.9316,0,0,0.9316,200.2852,87.5665)" stroke-miterlimit="1.45">
      <path fill="none" d="M-208 -19.4375 L-104.8 -19.4375 L-104.8 20.5625 L-208 20.5625 Z" clip-path="url(#clipPath2)"/>
      <text x="-200.3219" xml:space="preserve" y="4.7188" font-family="sans-serif" clip-path="url(#clipPath2)" stroke="none">inicializar Q(t)</text>
    </g>
    <g stroke-linecap="butt" transform="matrix(0.9316,0,0,0.9316,200.2852,87.5665)" stroke-miterlimit="1.45">
      <path fill="none" d="M-35.5 -19.4375 L124.9 -19.4375 L124.9 20.5625 L-35.5 20.5625 Z" clip-path="url(#clipPath2)"/>
      <text x="-0.9709" xml:space="preserve" y="4.7188" font-family="sans-serif" clip-path="url(#clipPath2)" stroke="none">evaluación P(t)</text>
    </g>
    <g stroke-linecap="butt" transform="matrix(0.9316,0,0,0.9316,200.2852,87.5665)" stroke-miterlimit="1.45">
      <path fill="none" d="M394.6 75.25 L559.4 75.25 L559.4 115.25 L394.6 115.25 Z" clip-path="url(#clipPath2)"/>
      <text x="403.6875" xml:space="preserve" y="99.4062" font-family="sans-serif" clip-path="url(#clipPath2)" stroke="none">aplicación op. genéticos</text>
    </g>
    <g stroke-linecap="butt" transform="matrix(0.9316,0,0,0.9316,200.2852,87.5665)" stroke-miterlimit="1.45">
      <path fill="none" d="M45.1 105.5375 L109.9 143.9375 L45.1 182.3375 L-19.7 143.9375 Z" clip-path="url(#clipPath2)"/>
      <text x="14.3383" xml:space="preserve" y="134.0576" font-family="sans-serif" clip-path="url(#clipPath2)" stroke="none">se cumple</text>
      <text x="-10.0279" xml:space="preserve" y="148.0264" font-family="sans-serif" clip-path="url(#clipPath2)" stroke="none">cond. terminación</text>
    </g>
    <g stroke-linecap="butt" transform="matrix(0.9316,0,0,0.9316,200.2852,87.5665)" stroke-miterlimit="1.45">
      <path fill="none" d="M194.6 43.05 L359.4 43.05 L359.4 83.05 L194.6 83.05 Z" clip-path="url(#clipPath2)"/>
      <text x="250.6768" xml:space="preserve" y="67.2063" font-family="sans-serif" clip-path="url(#clipPath2)" stroke="none">t = t + 1</text>
    </g>
    <g stroke-linecap="butt" transform="matrix(0.9316,0,0,0.9316,200.2852,87.5665)" stroke-miterlimit="1.45">
      <path fill="none" d="M-35.5 -81.925 L124.9 -81.925 L124.9 -41.925 L-35.5 -41.925 Z" clip-path="url(#clipPath2)"/>
      <text x="-16.9465" xml:space="preserve" y="-57.7687" font-family="sans-serif" clip-path="url(#clipPath2)" stroke="none">P(t) = medición Q(t)</text>
    </g>
    <g stroke-linecap="butt" transform="matrix(0.9316,0,0,0.9316,200.2852,87.5665)" stroke-miterlimit="1.45">
      <path fill="none" d="M-35.5 43.05 L125.3 43.05 L125.3 83.05 L-35.5 83.05 Z" clip-path="url(#clipPath2)"/>
      <text x="-12.6918" xml:space="preserve" y="67.2063" font-family="sans-serif" clip-path="url(#clipPath2)" stroke="none">B(t) = mejores P(t)</text>
    </g>
    <g stroke-linecap="butt" transform="matrix(0.9316,0,0,0.9316,200.2852,87.5665)" stroke-miterlimit="1.45">
      <path fill="none" d="M194.6 107.45 L359.4 107.45 L359.4 147.45 L194.6 147.45 Z" clip-path="url(#clipPath2)"/>
      <text x="209.5088" xml:space="preserve" y="131.6062" font-family="sans-serif" clip-path="url(#clipPath2)" stroke="none">P(t) = medición Q(t-1)</text>
    </g>
    <g stroke-linecap="butt" transform="matrix(0.9316,0,0,0.9316,200.2852,87.5665)" stroke-miterlimit="1.45">
      <path fill="none" d="M194.6 171.85 L359.4 171.85 L359.4 211.85 L194.6 211.85 Z" clip-path="url(#clipPath2)"/>
      <text x="231.3291" xml:space="preserve" y="196.0063" font-family="sans-serif" clip-path="url(#clipPath2)" stroke="none">evaluación P(t)</text>
    </g>
    <g stroke-linecap="butt" transform="matrix(0.9316,0,0,0.9316,200.2852,87.5665)" stroke-miterlimit="1.45">
      <path fill="none" d="M194.6 236.25 L359.4 236.25 L359.4 276.25 L194.6 276.25 Z" clip-path="url(#clipPath2)"/>
      <text x="222.959" xml:space="preserve" y="260.4062" font-family="sans-serif" clip-path="url(#clipPath2)" stroke="none">actualización Q(t)</text>
    </g>
    <g stroke-linecap="butt" transform="matrix(0.9316,0,0,0.9316,200.2852,87.5665)" stroke-miterlimit="1.45">
      <path fill="none" d="M188.84 300.65 L365.16 300.65 L365.16 340.65 L188.84 340.65 Z" clip-path="url(#clipPath2)"/>
      <text x="193.5654" xml:space="preserve" y="324.8062" font-family="sans-serif" clip-path="url(#clipPath2)" stroke="none">B(t) = mejores (B(t-1), P(t))</text>
    </g>
    <g stroke-linecap="butt" transform="matrix(0.9316,0,0,0.9316,200.2852,87.5665)" stroke-miterlimit="1.45">
      <path fill="none" d="M194.6 365.05 L359.4 365.05 L359.4 405.05 L194.6 405.05 Z" clip-path="url(#clipPath2)"/>
      <text x="233.3271" xml:space="preserve" y="389.2062" font-family="sans-serif" clip-path="url(#clipPath2)" stroke="none">b = mejor B(t)</text>
    </g>
    <g stroke-linecap="butt" transform="matrix(0.9316,0,0,0.9316,200.2852,87.5665)" stroke-miterlimit="1.45">
      <path fill="none" d="M-156.4 -41.94 L-156.4 -27.402" clip-path="url(#clipPath2)"/>
    </g>
    <g stroke-linecap="butt" transform="matrix(0.9316,0,0,0.9316,200.2852,87.5665)" stroke-miterlimit="1.45">
      <path d="M-156.4 -19.402 L-151.4 -31.402 L-156.4 -28.402 L-161.4 -31.402 Z" clip-path="url(#clipPath2)" stroke="none"/>
      <path fill="none" d="M-19.6661 143.9375 L-52.878 143.9375" clip-path="url(#clipPath2)"/>
      <path d="M-60.878 143.9375 L-48.878 148.9375 L-51.878 143.9375 L-48.878 138.9375 Z" clip-path="url(#clipPath2)" stroke="none"/>
      <text x="-46.3293" xml:space="preserve" y="118.0938" font-family="sans-serif" clip-path="url(#clipPath2)" stroke="none">Sí</text>
      <path fill="none" d="M109.9278 143.9375 L144.85 143.9375 L144.85 63.05 L186.6321 63.05" clip-path="url(#clipPath2)"/>
      <path d="M194.6321 63.05 L182.6321 58.05 L185.6321 63.05 L182.6321 68.05 Z" clip-path="url(#clipPath2)" stroke="none"/>
      <text x="116.9" xml:space="preserve" y="122.9087" font-family="sans-serif" clip-path="url(#clipPath2)" stroke="none">No</text>
      <path fill="none" stroke-dasharray="6,2" d="M359.373 63.05 L477 63.05 L477 67.2193" clip-path="url(#clipPath2)"/>
      <path stroke-dasharray="6,2" d="M477 75.2193 L482 63.2193 L477 66.2193 L472 63.2193 Z" clip-path="url(#clipPath2)" stroke="none"/>
      <path fill="none" d="M-104.8 0.5625 L-89.0471 0.5625 L-89.0471 -61.925 L-43.5287 -61.925" clip-path="url(#clipPath2)"/>
      <path d="M-35.5287 -61.925 L-47.5287 -66.925 L-44.5287 -61.925 L-47.5287 -56.925 Z" clip-path="url(#clipPath2)" stroke="none"/>
      <path fill="none" d="M44.7 -41.94 L44.7 -27.402" clip-path="url(#clipPath2)"/>
      <path d="M44.7 -19.402 L49.7 -31.402 L44.7 -28.402 L39.7 -31.402 Z" clip-path="url(#clipPath2)" stroke="none"/>
      <path fill="none" d="M44.764 20.5475 L44.8105 35.0855" clip-path="url(#clipPath2)"/>
      <path d="M44.8361 43.0855 L49.7977 31.0695 L44.8073 34.0855 L39.7977 31.1015 Z" clip-path="url(#clipPath2)" stroke="none"/>
      <path fill="none" d="M44.9495 83.0744 L44.9854 97.5712" clip-path="url(#clipPath2)"/>
      <path d="M45.0051 105.5712 L49.9754 93.5588 L44.9829 96.5712 L39.9755 93.5836 Z" clip-path="url(#clipPath2)" stroke="none"/>
      <path fill="none" d="M277 83.0807 L277 99.4751" clip-path="url(#clipPath2)"/>
      <path d="M277 107.4751 L282 95.4751 L277 98.4751 L272 95.4751 Z" clip-path="url(#clipPath2)" stroke="none"/>
      <path fill="none" stroke-dasharray="6,2" d="M477 115.2807 L477 127.45 L367.373 127.45" clip-path="url(#clipPath2)"/>
      <path stroke-dasharray="6,2" d="M359.373 127.45 L371.373 132.45 L368.373 127.45 L371.373 122.45 Z" clip-path="url(#clipPath2)" stroke="none"/>
      <path fill="none" d="M277 147.4807 L277 163.8751" clip-path="url(#clipPath2)"/>
      <path d="M277 171.8751 L282 159.8751 L277 162.8751 L272 159.8751 Z" clip-path="url(#clipPath2)" stroke="none"/>
      <path fill="none" d="M277 211.8807 L277 228.2751" clip-path="url(#clipPath2)"/>
      <path d="M277 236.2751 L282 224.2751 L277 227.2751 L272 224.2751 Z" clip-path="url(#clipPath2)" stroke="none"/>
      <path fill="none" d="M277 276.2807 L277 292.6751" clip-path="url(#clipPath2)"/>
      <path d="M277 300.6751 L282 288.6751 L277 291.6751 L272 288.6751 Z" clip-path="url(#clipPath2)" stroke="none"/>
      <path fill="none" d="M277 340.6807 L277 357.0751" clip-path="url(#clipPath2)"/>
      <path d="M277 365.0751 L282 353.0751 L277 356.0751 L272 353.0751 Z" clip-path="url(#clipPath2)" stroke="none"/>
      <path fill="none" d="M194.5951 385.05 L45.1 385.05 L45.1 190.3472" clip-path="url(#clipPath2)"/>
      <path d="M45.1 182.3472 L40.1 194.3472 L45.1 191.3472 L50.1 194.3472 Z" clip-path="url(#clipPath2)" stroke="none"/>
    </g>
  </g>
</svg>
